<?xml version="1.0" encoding="UTF-8"?>
<svg width="26px" height="22px" viewBox="0 0 26 22" version="1.1" xmlns="http://www.w3.org/2000/svg" xmlns:xlink="http://www.w3.org/1999/xlink">
    <!-- Generator: Sketch 60.1 (88133) - https://sketch.com -->
    <title>camera only icon</title>
    <desc>Created with Sketch.</desc>
    <g id="Verification-native-application" stroke="none" stroke-width="1" fill="none" fill-rule="evenodd">
        <g id="17---Help-info" transform="translate(-35.000000, -391.000000)" fill="#00CCFF">
            <g id="icon/full/camera" transform="translate(23.000000, 378.000000)">
                <g id="icon/shape-primary/camera/blue" transform="translate(12.000000, 13.414000)">
                    <g id="Group-3" transform="translate(0.000000, 0.000000)">
                        <path d="M6.67747826,20.7468696 C6.36547826,20.7468696 6.11226087,20.4936522 6.11226087,20.1816522 L6.11226087,3.47382609 C6.11226087,3.16182609 6.36547826,2.9086087 6.67747826,2.9086087 C6.98947826,2.9086087 7.24269565,3.16182609 7.24269565,3.47382609 L7.24269565,20.1816522 C7.24269565,20.4936522 6.98947826,20.7468696 6.67747826,20.7468696" id="Fill-165"></path>
                        <path d="M15.2733043,6.786 C12.4935652,6.786 10.2315652,9.048 10.2315652,11.8277391 C10.2315652,14.6074783 12.4935652,16.8694783 15.2733043,16.8694783 C18.0530435,16.8694783 20.3150435,14.6074783 20.3150435,11.8277391 C20.3150435,9.048 18.0530435,6.786 15.2733043,6.786 Z M15.2733043,17.999913 C11.8695652,17.999913 9.10113043,15.2314783 9.10113043,11.8277391 C9.10113043,8.424 11.8695652,5.65556522 15.2733043,5.65556522 C18.675913,5.65556522 21.4454783,8.424 21.4454783,11.8277391 C21.4454783,15.2314783 18.675913,17.999913 15.2733043,17.999913 L15.2733043,17.999913 Z" id="Fill-166"></path>
                        <path d="M2.132,3.9746087 C1.57921739,3.9746087 1.13043478,4.4233913 1.13043478,4.97504348 L1.13043478,18.6815652 C1.13043478,19.2354783 1.57921739,19.6842609 2.132,19.6842609 L23.0846087,19.6842609 C23.6362609,19.6842609 24.0850435,19.2354783 24.0850435,18.6815652 L24.0850435,4.97504348 C24.0850435,4.4233913 23.6362609,3.9746087 23.0846087,3.9746087 L21.0464348,3.9746087 C20.8734783,3.9746087 20.7084348,3.89434783 20.6010435,3.75756522 L18.5391304,1.13043478 L12.0074783,1.13043478 L9.94443478,3.75756522 C9.83704348,3.89434783 9.672,3.9746087 9.49904348,3.9746087 L2.132,3.9746087 Z M23.0846087,20.8146957 L2.132,20.8146957 C0.956347826,20.8146957 0,19.8572174 0,18.6815652 L0,4.97504348 C0,3.7993913 0.956347826,2.84417391 2.132,2.84417391 L9.22434783,2.84417391 L11.2873913,0.215913043 C11.3947826,0.0791304348 11.5586957,0 11.7327826,0 L18.8138261,0 C18.987913,0 19.1518261,0.0791304348 19.2592174,0.215913043 L21.3211304,2.84417391 L23.0846087,2.84417391 C24.2602609,2.84417391 25.2154783,3.7993913 25.2154783,4.97504348 L25.2154783,18.6815652 C25.2154783,19.8572174 24.2602609,20.8146957 23.0846087,20.8146957 L23.0846087,20.8146957 Z" id="Fill-167"></path>
                    </g>
                </g>
            </g>
        </g>
    </g>
</svg>