<?xml version="1.0" encoding="UTF-8"?>
<svg width="20px" height="14px" viewBox="0 0 20 14" version="1.1" xmlns="http://www.w3.org/2000/svg" xmlns:xlink="http://www.w3.org/1999/xlink">
    <!-- Generator: Sketch 60.1 (88133) - https://sketch.com -->
    <title>icon/full/eye</title>
    <desc>Created with Sketch.</desc>
    <g id="Verification-native-application" stroke="none" stroke-width="1" fill="none" fill-rule="evenodd">
        <g id="00---Login" transform="translate(-294.000000, -458.000000)" fill="#8799AD">
            <g id="Group-2" transform="translate(43.000000, 441.000000)">
                <g id="icon/full/eye" transform="translate(241.000000, 4.000000)">
                    <g id="icon/shape-primary/eye/mediumgray" transform="translate(10.210667, 13.000000)">
                        <g id="Group">
                            <path d="M0.912888889,7 C2.17511111,10.6613333 5.72266667,13.1111111 9.78933333,13.1111111 C13.856,13.1111111 17.4044444,10.6613333 18.6666667,7 C17.4035556,3.33777778 13.8551111,0.888888889 9.78933333,0.888888889 C5.72355556,0.888888889 2.176,3.33777778 0.912888889,7 Z M9.78933333,14 C5.28622222,14 1.36088889,11.2417778 0.0213333333,7.13777778 C-0.00711111111,7.048 -0.00711111111,6.95111111 0.0213333333,6.86133333 C1.36177778,2.75733333 5.28711111,-1.0658141e-14 9.78933333,-1.0658141e-14 C14.2924444,-1.0658141e-14 18.2177778,2.75733333 19.5573333,6.86133333 C19.5866667,6.95111111 19.5866667,7.048 19.5573333,7.13777778 C18.2186667,11.2417778 14.2933333,14 9.78933333,14 L9.78933333,14 Z" id="Fill-692"></path>
                            <path d="M9.78933333,11.3715556 C7.37866667,11.3715556 5.41777778,9.41066667 5.41777778,7 C5.41777778,6.75377778 5.61688889,6.55555556 5.86222222,6.55555556 C6.10844444,6.55555556 6.30666667,6.75377778 6.30666667,7 C6.30666667,8.92 7.86933333,10.4826667 9.78933333,10.4826667 C11.7084444,10.4826667 13.2702222,8.92 13.2702222,7 C13.2702222,5.08 11.7084444,3.51911111 9.78933333,3.51911111 C9.544,3.51911111 9.34488889,3.32 9.34488889,3.07466667 C9.34488889,2.82844444 9.544,2.63022222 9.78933333,2.63022222 C12.1991111,2.63022222 14.1591111,4.59022222 14.1591111,7 C14.1591111,9.41066667 12.1991111,11.3715556 9.78933333,11.3715556" id="Fill-693"></path>
                        </g>
                    </g>
                </g>
            </g>
        </g>
    </g>
</svg>